<svg xmlns="http://www.w3.org/2000/svg" width="1234.419" height="293.798" viewBox="0 0 1234.419 293.798">
  <g id="Layer_2" data-name="Layer 2">
    <g id="Layer_1-2" data-name="Layer 1">
      <g>
        <g>
          <path d="M291.732,293.733a40.572,40.572,0,0,1-16.747-3.292,26.469,26.469,0,0,1-11.6-9.779q-4.251-6.488-4.25-16.2a28.613,28.613,0,0,1,3-13.743,24.318,24.318,0,0,1,8.181-8.948,39.644,39.644,0,0,1,11.793-5.115,88.9,88.9,0,0,1,13.9-2.428q8.565-.9,13.806-1.695t7.607-2.4a5.34,5.34,0,0,0,2.365-4.731v-.382q0-6.073-3.8-9.4T305.22,212.3q-7.351,0-11.7,3.228a15.152,15.152,0,0,0-5.752,8.086l-25.185-2.046a34.446,34.446,0,0,1,7.543-15.5,36.583,36.583,0,0,1,14.542-10.1,55.7,55.7,0,0,1,20.678-3.547,63.219,63.219,0,0,1,15.692,1.917,41.371,41.371,0,0,1,13.359,5.945,29.086,29.086,0,0,1,9.237,10.323,31.345,31.345,0,0,1,3.388,15.053V291.88H321.2V278.265h-.767a27.307,27.307,0,0,1-6.329,8.086,28.533,28.533,0,0,1-9.523,5.433A38.8,38.8,0,0,1,291.732,293.733Zm7.8-18.792a22.648,22.648,0,0,0,10.611-2.4,18.565,18.565,0,0,0,7.223-6.488,16.82,16.82,0,0,0,2.62-9.269V246.368a13.9,13.9,0,0,1-3.483,1.5q-2.205.671-4.954,1.214t-5.5.959q-2.749.415-4.986.735a33.64,33.64,0,0,0-8.374,2.238,13.5,13.5,0,0,0-5.56,4.122,10.258,10.258,0,0,0-1.982,6.424,9.762,9.762,0,0,0,4.059,8.469A17.279,17.279,0,0,0,299.531,274.941Z" fill="#408fe2"/>
          <path d="M368.18,291.88V193.7h25.952v17.323h1.15a27.24,27.24,0,0,1,10.228-13.616,29.219,29.219,0,0,1,17.131-4.985q10.1,0,17.194,5.018a23.929,23.929,0,0,1,9.46,13.583h1.022a26.236,26.236,0,0,1,10.9-13.52,33.784,33.784,0,0,1,18.7-5.081q13.741,0,22.34,8.725t8.6,24.7v66.03H483.685V231.22q0-8.181-4.347-12.274a15.247,15.247,0,0,0-10.867-4.091q-7.416,0-11.57,4.7t-4.154,12.369V291.88h-26.4V230.645q0-7.224-4.123-11.506a14.355,14.355,0,0,0-10.834-4.284,15,15,0,0,0-8.151,2.27,16,16,0,0,0-5.72,6.328,20.3,20.3,0,0,0-2.11,9.492V291.88Z" fill="#408fe2"/>
          <path d="M532.326,291.88V193.7h26.4v17.131h1.022q2.685-9.141,9.013-13.839a23.792,23.792,0,0,1,14.574-4.7,41.318,41.318,0,0,1,4.41.256,31.211,31.211,0,0,1,4.155.7v24.161a35.589,35.589,0,0,0-5.3-1.022,47.721,47.721,0,0,0-6.2-.448,21.825,21.825,0,0,0-10.707,2.589,19.235,19.235,0,0,0-7.415,7.192,20.475,20.475,0,0,0-2.716,10.61V291.88Z" fill="#408fe2"/>
          <path d="M645.657,293.8q-14.894,0-25.728-6.36a42.99,42.99,0,0,1-16.715-17.77q-5.882-11.411-5.881-26.5,0-15.213,5.881-26.623a42.992,42.992,0,0,1,16.715-17.771q10.835-6.358,25.728-6.359t25.728,6.359A43.007,43.007,0,0,1,688.1,216.55q5.88,11.409,5.879,26.623,0,15.085-5.879,26.5a43,43,0,0,1-16.716,17.77Q660.551,293.8,645.657,293.8Zm.128-21.094a16.842,16.842,0,0,0,11.314-3.867,23.8,23.8,0,0,0,6.871-10.579,51.164,51.164,0,0,0,0-30.554,24.026,24.026,0,0,0-6.871-10.611,16.758,16.758,0,0,0-11.314-3.9,17.212,17.212,0,0,0-11.473,3.9,23.607,23.607,0,0,0-6.968,10.611,51.185,51.185,0,0,0,0,30.554,23.385,23.385,0,0,0,6.968,10.579A17.3,17.3,0,0,0,645.785,272.7Z" fill="#408fe2"/>
          <path d="M821.758,160.971V291.88H797.852L740.9,209.486h-.959V291.88H712.262V160.971h24.29l56.505,82.33h1.151v-82.33Z" fill="#214c72"/>
          <path d="M857.743,181.042a14.686,14.686,0,0,1-10.388-4.027,13.1,13.1,0,0,1,.033-19.464,15.322,15.322,0,0,1,20.742-.031,13.132,13.132,0,0,1,0,19.462A14.617,14.617,0,0,1,857.743,181.042ZM844.063,291.88V193.7h27.231V291.88Z" fill="#214c72"/>
          <path d="M912.393,291.88,885.674,193.7h27.55l15.213,65.966h.894L945.184,193.7h27.038L988.33,259.28h.831l14.957-65.582H1031.6l-26.655,98.182H976.121l-16.875-61.747h-1.214L941.157,291.88Z" fill="#214c72"/>
          <path d="M1074.044,293.733a40.565,40.565,0,0,1-16.747-3.292,26.467,26.467,0,0,1-11.6-9.779q-4.251-6.488-4.25-16.2a28.613,28.613,0,0,1,3-13.743,24.321,24.321,0,0,1,8.182-8.948,39.644,39.644,0,0,1,11.793-5.115,88.909,88.909,0,0,1,13.9-2.428q8.565-.9,13.807-1.695t7.606-2.4a5.34,5.34,0,0,0,2.365-4.731v-.382q0-6.073-3.8-9.4t-10.771-3.324q-7.35,0-11.7,3.228a15.159,15.159,0,0,0-5.753,8.086l-25.185-2.046a34.456,34.456,0,0,1,7.543-15.5,36.583,36.583,0,0,1,14.542-10.1,55.7,55.7,0,0,1,20.678-3.547,63.227,63.227,0,0,1,15.693,1.917,41.391,41.391,0,0,1,13.359,5.945,29.093,29.093,0,0,1,9.236,10.323,31.345,31.345,0,0,1,3.389,15.053V291.88h-25.824V278.265h-.768a27.288,27.288,0,0,1-6.328,8.086,28.543,28.543,0,0,1-9.523,5.433A38.806,38.806,0,0,1,1074.044,293.733Zm7.8-18.792a22.641,22.641,0,0,0,10.61-2.4,18.568,18.568,0,0,0,7.224-6.488,16.82,16.82,0,0,0,2.62-9.269V246.368a13.921,13.921,0,0,1-3.484,1.5,50.944,50.944,0,0,1-4.954,1.214q-2.748.543-5.5.959t-4.985.735a33.64,33.64,0,0,0-8.374,2.238,13.5,13.5,0,0,0-5.561,4.122,10.258,10.258,0,0,0-1.981,6.424,9.759,9.759,0,0,0,4.059,8.469A17.279,17.279,0,0,0,1081.843,274.941Z" fill="#214c72"/>
          <path d="M1232.182,221.7l-24.929,1.535a13.125,13.125,0,0,0-2.749-5.786,15.106,15.106,0,0,0-5.528-4.154,19.454,19.454,0,0,0-8.151-1.566,20.141,20.141,0,0,0-10.675,2.652q-4.347,2.655-4.346,7.063a7.563,7.563,0,0,0,2.812,5.945q2.813,2.43,9.653,3.9l17.769,3.58q14.318,2.94,21.35,9.46t7.031,17.131a26.84,26.84,0,0,1-5.657,16.939,36.936,36.936,0,0,1-15.469,11.345,58.726,58.726,0,0,1-22.6,4.06q-19.5,0-31.033-8.151a31.481,31.481,0,0,1-13.519-22.211l26.783-1.407a13.632,13.632,0,0,0,5.881,9.045q4.663,3.1,11.953,3.1,7.156,0,11.537-2.78t4.442-7.192a7.6,7.6,0,0,0-3.132-6.1q-3.069-2.4-9.46-3.675l-17-3.388q-14.38-2.877-21.381-9.972t-7-18.089a26.337,26.337,0,0,1,5.145-16.3,32.653,32.653,0,0,1,14.51-10.547,59.464,59.464,0,0,1,21.957-3.707q18.6,0,29.308,7.862A30.407,30.407,0,0,1,1232.182,221.7Z" fill="#214c72"/>
        </g>
        <path d="M193.747,127.491V199.4H96.731V127.491h-44.9v164.65h77.059V234.486h32.708v57.655h77.058V127.491Z" fill="#408fe2"/>
        <path d="M299.865,0,219.02,80.845,190.059,51.883h0L157.805,19.63h0a17.767,17.767,0,0,0-24.989-.134c-.047.046-.095.088-.141.134h0l-.8.8L0,152.3l35.619,35.619h0l99.34-99.343.606-.606.1-.1a13.658,13.658,0,0,1,19.237.1L183.4,116.464l-.077.077,34.731,35.6L335.029,35.163Z" fill="#214c72"/>
      </g>
    </g>
  </g>
</svg>
